<svg width="124" height="32" viewBox="0 0 124 32" fill="none" xmlns="http://www.w3.org/2000/svg">
<path d="M27.0972 0H4.90281C2.19507 0 0 2.19506 0 4.90281V27.0972C0 29.8049 2.19507 32 4.90281 32H27.0972C29.8049 32 32 29.8049 32 27.0972V4.90281C32 2.19506 29.8049 0 27.0972 0Z" fill="#DDDDDD"/>
<path d="M24.8164 8.26752C23.5081 6.95924 21.4288 6.8937 20.0421 8.0696C19.1039 8.74559 18.3085 10.0834 17.9846 12.547C17.9846 12.547 17.6427 14.5287 17.4423 15.4977L20.88 11.7078L17.5772 15.6442C18.5423 15.4437 20.5369 15.1006 20.5369 15.1006C23.0005 14.7768 24.337 13.9813 25.0143 13.0431C26.1902 11.6564 26.1247 9.57707 24.8164 8.2688V8.26752Z" fill="white"/>
<path d="M24.7829 17.1784H21.119C20.4597 17.0576 18.6374 16.7196 17.6928 16.5127L21.0188 20.4761L17.5579 16.6605C17.7314 17.5331 17.9987 19.1267 18.1259 19.8952V23.8354C18.1259 24.1246 18.3624 24.3598 18.6502 24.3598H24.7829C25.0721 24.3598 25.3073 24.1233 25.3073 23.8354V17.7027C25.3073 17.4136 25.0708 17.1784 24.7829 17.1784Z" fill="#23275D"/>
<path d="M13.2333 11.7078L16.6326 15.4553C16.4064 14.3231 16.0568 12.236 15.8897 11.2323V6.10459C15.8897 5.72933 15.5826 5.4209 15.206 5.4209H7.22531C6.85005 5.4209 6.54163 5.72805 6.54163 6.10459V14.0853C6.54163 14.4606 6.84877 14.769 7.22531 14.769H11.9945C12.8735 14.9309 15.3448 15.3884 16.5452 15.6558L13.2333 11.7091V11.7078Z" fill="#23275D"/>
<path d="M13.0958 20.4759L16.5336 16.3789C15.3037 16.7477 12.763 17.4186 12.763 17.4186C9.60537 18.119 7.96166 19.3013 7.19186 20.5942C5.82447 22.5257 6.14577 25.2142 7.98994 26.7616C9.83412 28.3102 12.5381 28.1585 14.2023 26.4763C15.3422 25.4931 16.2213 23.6682 16.3626 20.4387C16.3626 20.4387 16.5914 17.6975 16.7417 16.4586L13.0971 20.4772L13.0958 20.4759Z" fill="#FFA216"/>
<path d="M43.0983 17.4704V21.6039C42.9623 21.636 42.7658 21.684 42.4786 21.7161C42.1915 21.7481 41.9194 21.7641 41.6474 21.7641C41.3753 21.7641 41.1335 21.7481 40.937 21.7C40.7255 21.652 40.5592 21.5719 40.4232 21.4597C40.2872 21.3476 40.1814 21.1874 40.1058 20.9951C40.0302 20.8028 40 20.5305 40 20.21V10.3409C40.136 10.3088 40.3325 10.2768 40.6197 10.2447C40.9068 10.1967 41.1789 10.1807 41.4358 10.1807C41.7078 10.1807 41.9497 10.1967 42.1461 10.2447C42.3577 10.2928 42.524 10.3729 42.66 10.4851C42.796 10.5972 42.9018 10.7574 42.9774 10.9497C43.053 11.1419 43.0832 11.4143 43.0832 11.7347V14.6987L46.7558 10.2287C47.5568 10.2287 48.1311 10.3889 48.4787 10.7094C48.8263 11.0298 48.9926 11.3983 48.9926 11.8469C48.9926 12.1673 48.917 12.4717 48.7659 12.7601C48.6148 13.0485 48.3729 13.3689 48.0253 13.7374L45.8187 16.0765C46.1059 16.429 46.4233 16.7815 46.7407 17.166C47.0581 17.5345 47.3754 17.903 47.6928 18.2554C48.0102 18.6079 48.2974 18.9444 48.5845 19.2808C48.8717 19.6012 49.1286 19.8896 49.3402 20.1139C49.3402 20.3863 49.2949 20.6266 49.2042 20.8349C49.1135 21.0432 48.9775 21.2194 48.8264 21.3796C48.6752 21.5238 48.4938 21.6359 48.2823 21.7161C48.0858 21.7962 47.8742 21.8282 47.6475 21.8282C47.1638 21.8282 46.7709 21.7 46.4686 21.4437C46.1664 21.1874 45.8641 20.8829 45.592 20.5305L43.0983 17.4704Z" fill="#23275D"/>
<path d="M50.8363 12.0838C50.8363 11.5551 50.9874 11.1225 51.2746 10.8181C51.5618 10.5137 51.9698 10.3535 52.4686 10.3535H58.2873C58.3629 10.4977 58.4384 10.6739 58.514 10.8982C58.5745 11.1225 58.6047 11.3629 58.6047 11.6032C58.6047 12.0838 58.514 12.4203 58.3175 12.6125C58.1211 12.8048 57.8641 12.9169 57.5467 12.9169H53.8288V14.6472H57.7886C57.8641 14.7914 57.9397 14.9677 58.0153 15.176C58.0757 15.4002 58.1059 15.6245 58.1059 15.8809C58.1059 16.3615 58.0153 16.698 57.8188 16.8902C57.6374 17.0825 57.3805 17.1946 57.0631 17.1946H53.8288V19.1492H58.3629C58.4384 19.2934 58.514 19.4697 58.5896 19.694C58.65 19.9183 58.6803 20.1586 58.6803 20.3989C58.6803 20.8796 58.5896 21.216 58.3931 21.4243C58.1966 21.6326 57.9397 21.7287 57.6223 21.7287H52.4837C51.9849 21.7287 51.5769 21.5685 51.2897 21.2641C51.0026 20.9597 50.8514 20.5271 50.8514 19.9984V12.0838H50.8363Z" fill="#23275D"/>
<path d="M70.1669 21.2829C70.0006 21.4591 69.7588 21.5873 69.4565 21.6834C69.1392 21.7796 68.7764 21.8276 68.3381 21.8276C67.8998 21.8276 67.4918 21.7635 67.0988 21.6193C66.7059 21.4751 66.3885 21.1547 66.1467 20.626L64.4086 16.845C64.2272 16.4605 64.0761 16.092 63.9401 15.7555C63.804 15.4191 63.6529 15.0185 63.4867 14.5699L63.3809 14.586C63.4262 15.2589 63.4564 15.9478 63.4564 16.6367C63.4564 17.3416 63.4715 18.0145 63.4715 18.6874V21.5873C63.3355 21.6193 63.139 21.6674 62.8821 21.6994C62.6252 21.7315 62.3531 21.7475 62.0962 21.7475C61.8393 21.7475 61.6126 21.7315 61.4161 21.6994C61.2196 21.6674 61.0534 21.5873 60.9173 21.4751C60.7813 21.363 60.6906 21.2028 60.6151 21.0105C60.5395 20.8183 60.5093 20.5619 60.5093 20.2575V10.9171C60.6755 10.6607 60.9325 10.4845 61.265 10.3563C61.6126 10.2281 61.9753 10.1641 62.3531 10.1641C62.7914 10.1641 63.1995 10.2282 63.5924 10.3723C63.9854 10.5165 64.3028 10.837 64.5295 11.3496L66.2978 15.1307C66.4792 15.5152 66.6303 15.8837 66.7663 16.2201C66.9023 16.5566 67.0535 16.9571 67.2197 17.4057L67.3104 17.3897C67.2651 16.7168 67.2348 16.0439 67.2197 15.371C67.2046 14.6981 67.2046 14.0252 67.2046 13.3523V10.3243C67.3406 10.2922 67.5371 10.2442 67.794 10.2121C68.051 10.1801 68.323 10.1641 68.5799 10.1641C69.0938 10.1641 69.4868 10.2602 69.7588 10.4525C70.0309 10.6447 70.1669 11.0452 70.1669 11.6541V21.2829Z" fill="#23275D"/>
<path d="M75.4871 17.1621C74.9732 16.9699 74.5047 16.7776 74.0815 16.5854C73.6583 16.3931 73.2956 16.1528 72.9933 15.8804C72.6911 15.6081 72.4493 15.2876 72.283 14.9031C72.1168 14.5186 72.0261 14.054 72.0261 13.5093C72.0261 12.4519 72.4039 11.6027 73.1747 10.9619C73.9455 10.321 75.0186 10.0166 76.409 10.0166C76.9078 10.0166 77.3914 10.0486 77.8146 10.1288C78.2529 10.2089 78.6156 10.321 78.933 10.4812C79.2504 10.6414 79.4922 10.8337 79.6585 11.074C79.8398 11.3143 79.9154 11.6027 79.9154 11.9231C79.9154 12.2436 79.8398 12.532 79.7038 12.7563C79.5678 12.9806 79.3864 13.1888 79.1899 13.349C78.933 13.1728 78.5854 13.0286 78.1471 12.8844C77.7088 12.7563 77.2403 12.6922 76.7264 12.6922C76.1974 12.6922 75.8045 12.7723 75.5627 12.9325C75.3208 13.0927 75.1999 13.285 75.1999 13.5253C75.1999 13.7175 75.2755 13.8617 75.4266 13.9899C75.5778 14.1021 75.8045 14.2142 76.1068 14.3103L77.0438 14.6308C78.1471 14.9992 78.9935 15.4799 79.5829 16.0567C80.1723 16.6334 80.4746 17.4185 80.4746 18.4118C80.4746 19.4692 80.0816 20.3344 79.2957 20.9752C78.5098 21.6321 77.3461 21.9525 75.8196 21.9525C75.2755 21.9525 74.7768 21.9044 74.3082 21.8083C73.8397 21.7122 73.4316 21.584 73.0991 21.3918C72.7515 21.2155 72.4795 20.9912 72.283 20.7189C72.0865 20.4465 71.9958 20.1421 71.9958 19.7896C71.9958 19.4211 72.1016 19.1167 72.2981 18.8604C72.4946 18.6041 72.7213 18.4118 72.948 18.2676C73.2805 18.54 73.6735 18.7803 74.1571 18.9725C74.6256 19.1648 75.1546 19.2769 75.7138 19.2769C76.2881 19.2769 76.6962 19.1808 76.9229 19.0046C77.1647 18.8123 77.2705 18.604 77.2705 18.3477C77.2705 18.0914 77.1798 17.9151 76.9833 17.7709C76.802 17.6428 76.5299 17.5146 76.1974 17.3864L75.4871 17.1621Z" fill="#23275D"/>
<path d="M82.1667 12.0848C82.1667 11.5561 82.3179 11.1235 82.605 10.8191C82.8922 10.5147 83.3003 10.3545 83.799 10.3545H89.6178C89.6933 10.4987 89.7689 10.6749 89.8445 10.8992C89.9049 11.1235 89.9352 11.3638 89.9352 11.6042C89.9352 12.0848 89.8445 12.4213 89.648 12.6135C89.4515 12.8058 89.1946 12.9179 88.8772 12.9179H85.1592V14.6482H89.119C89.1946 14.7924 89.2701 14.9686 89.3457 15.1769C89.4062 15.4012 89.4364 15.6255 89.4364 15.8819C89.4364 16.3625 89.3457 16.699 89.1492 16.8912C88.9679 17.0835 88.7109 17.1956 88.3936 17.1956H85.1441V19.1502H89.6782C89.7538 19.2944 89.8294 19.4707 89.9049 19.695C89.9654 19.9193 89.9956 20.1596 89.9956 20.3999C89.9956 20.8805 89.9049 21.217 89.7084 21.4253C89.512 21.6335 89.255 21.7297 88.9376 21.7297H83.799C83.3003 21.7297 82.8922 21.5695 82.605 21.265C82.3179 20.9606 82.1667 20.5281 82.1667 19.9994V12.0848Z" fill="#23275D"/>
<path d="M101.497 21.2829C101.33 21.4591 101.089 21.5873 100.786 21.6834C100.469 21.7796 100.106 21.8276 99.668 21.8276C99.2297 21.8276 98.8216 21.7635 98.4286 21.6193C98.0357 21.4751 97.7183 21.1547 97.4765 20.626L95.7384 16.845C95.5571 16.4605 95.4059 16.092 95.2699 15.7555C95.1339 15.4191 94.9827 15.0185 94.8165 14.5699L94.7107 14.586C94.756 15.2589 94.7863 15.9478 94.7863 16.6367C94.7863 17.3416 94.8014 18.0145 94.8014 18.6874V21.5873C94.6654 21.6193 94.4689 21.6674 94.212 21.6994C93.955 21.7315 93.683 21.7475 93.426 21.7475C93.1691 21.7475 92.9424 21.7315 92.7459 21.6994C92.5495 21.6674 92.3832 21.5873 92.2472 21.4751C92.1112 21.363 92.0205 21.2028 91.9449 21.0105C91.8693 20.8183 91.8391 20.5619 91.8391 20.2575V10.9171C92.0054 10.6607 92.2623 10.4845 92.5948 10.3563C92.9424 10.2281 93.3051 10.1641 93.683 10.1641C94.1213 10.1641 94.5293 10.2282 94.9223 10.3723C95.3152 10.5165 95.6326 10.837 95.8593 11.3496L97.6276 15.1307C97.809 15.5152 97.9601 15.8837 98.0962 16.2201C98.2322 16.5566 98.3833 16.9571 98.5496 17.4057L98.6402 17.3897C98.5949 16.7168 98.5647 16.0439 98.5496 15.371C98.5344 14.6981 98.5344 14.0252 98.5344 13.3523V10.3243C98.6705 10.2922 98.8669 10.2442 99.1239 10.2121C99.3808 10.1801 99.6529 10.1641 99.9098 10.1641C100.424 10.1641 100.817 10.2602 101.089 10.4525C101.361 10.6447 101.497 11.0452 101.497 11.6541V21.2829Z" fill="#23275D"/>
<path d="M103.295 12.9656C103.22 12.8214 103.144 12.6452 103.068 12.4049C102.993 12.1645 102.963 11.9242 102.963 11.6519C102.963 11.1712 103.068 10.8187 103.265 10.6105C103.477 10.4022 103.733 10.29 104.066 10.29H111.744C111.819 10.4342 111.895 10.6105 111.97 10.8508C112.046 11.0911 112.076 11.3314 112.076 11.6038C112.076 12.0844 111.97 12.4369 111.774 12.6452C111.562 12.8535 111.305 12.9656 110.973 12.9656H109.023V21.6011C108.887 21.6332 108.691 21.6812 108.419 21.7133C108.147 21.7453 107.875 21.7613 107.603 21.7613C107.33 21.7613 107.089 21.7453 106.892 21.6973C106.681 21.6492 106.514 21.5691 106.378 21.4569C106.242 21.3448 106.137 21.1846 106.061 20.9923C105.985 20.8001 105.955 20.5277 105.955 20.2073V12.9656H103.295Z" fill="#23275D"/>
<path d="M112.591 15.992C112.591 15.0147 112.742 14.1656 113.029 13.4126C113.316 12.6595 113.709 12.0347 114.208 11.5381C114.706 11.0414 115.296 10.6569 115.976 10.3845C116.656 10.1282 117.382 10 118.167 10C118.953 10 119.679 10.1282 120.359 10.3845C121.039 10.6409 121.629 11.0254 122.127 11.5381C122.626 12.0347 123.034 12.6756 123.321 13.4126C123.608 14.1656 123.76 15.0147 123.76 15.992C123.76 16.9693 123.624 17.8184 123.336 18.5714C123.049 19.3244 122.656 19.9493 122.157 20.4619C121.659 20.9586 121.069 21.3431 120.389 21.6155C119.709 21.8718 118.969 22 118.167 22C117.366 22 116.626 21.8718 115.946 21.5995C115.266 21.3271 114.676 20.9426 114.178 20.4299C113.679 19.9172 113.301 19.2924 113.014 18.5394C112.742 17.8024 112.591 16.9533 112.591 15.992ZM115.764 15.992C115.764 17.1295 115.976 17.9786 116.414 18.5394C116.853 19.1001 117.427 19.3725 118.152 19.3725C118.893 19.3725 119.482 19.1001 119.921 18.5394C120.359 17.9786 120.571 17.1295 120.571 15.992C120.571 14.8705 120.359 14.0374 119.921 13.4766C119.498 12.9159 118.908 12.6435 118.167 12.6435C117.442 12.6435 116.853 12.9159 116.414 13.4766C115.991 14.0214 115.764 14.8545 115.764 15.992Z" fill="#23275D"/>
</svg>
