<svg width="658" height="748" viewBox="0 0 658 748" fill="none" xmlns="http://www.w3.org/2000/svg">
<g clip-path="url(#clip0_1365_5379)" filter="url(#filter0_d_1365_5379)">
<rect x="52" y="52" width="554" height="612" rx="16" fill="white"/>
<path d="M118.731 90.0532L114.053 108H108.761L105.897 96.1889L102.932 108H97.6397L93.0891 90.0532H97.7676L100.35 103.117L103.545 90.0532H108.352L111.419 103.117L114.027 90.0532H118.731ZM134.371 100.637C134.371 101.046 134.345 101.472 134.294 101.915H124.4C124.468 102.802 124.75 103.483 125.244 103.961C125.755 104.421 126.377 104.651 127.11 104.651C128.201 104.651 128.959 104.191 129.386 103.27H134.038C133.8 104.208 133.365 105.051 132.735 105.801C132.121 106.551 131.346 107.139 130.408 107.565C129.471 107.991 128.423 108.205 127.264 108.205C125.866 108.205 124.622 107.906 123.531 107.31C122.44 106.713 121.588 105.861 120.975 104.753C120.361 103.645 120.054 102.35 120.054 100.867C120.054 99.3845 120.352 98.0892 120.949 96.9814C121.563 95.8736 122.415 95.0214 123.506 94.4249C124.596 93.8283 125.849 93.5301 127.264 93.5301C128.644 93.5301 129.871 93.8198 130.945 94.3993C132.019 94.9788 132.854 95.8054 133.45 96.8791C134.064 97.9529 134.371 99.2056 134.371 100.637ZM129.897 99.4868C129.897 98.7369 129.641 98.1403 129.13 97.6972C128.619 97.2541 127.979 97.0325 127.212 97.0325C126.48 97.0325 125.858 97.2456 125.346 97.6717C124.852 98.0977 124.545 98.7028 124.426 99.4868H129.897ZM156.181 93.7346V108H151.809V106.057C151.366 106.688 150.761 107.199 149.994 107.591C149.244 107.966 148.409 108.153 147.489 108.153C146.398 108.153 145.435 107.915 144.6 107.438C143.765 106.943 143.117 106.236 142.657 105.316C142.197 104.395 141.967 103.313 141.967 102.069V93.7346H146.313V101.481C146.313 102.435 146.56 103.177 147.054 103.705C147.549 104.233 148.213 104.498 149.048 104.498C149.901 104.498 150.574 104.233 151.068 103.705C151.562 103.177 151.809 102.435 151.809 101.481V93.7346H156.181ZM165.125 108.205C163.88 108.205 162.773 107.991 161.801 107.565C160.83 107.139 160.063 106.56 159.5 105.827C158.938 105.077 158.622 104.242 158.554 103.322H162.875C162.926 103.816 163.156 104.216 163.565 104.523C163.974 104.83 164.477 104.983 165.073 104.983C165.619 104.983 166.036 104.881 166.326 104.677C166.633 104.455 166.786 104.174 166.786 103.833C166.786 103.424 166.573 103.126 166.147 102.938C165.721 102.734 165.031 102.512 164.076 102.273C163.054 102.035 162.202 101.788 161.52 101.532C160.838 101.259 160.25 100.842 159.756 100.279C159.262 99.6998 159.014 98.9243 159.014 97.9529C159.014 97.1348 159.236 96.3934 159.679 95.7287C160.139 95.047 160.804 94.5101 161.673 94.1181C162.559 93.7261 163.608 93.5301 164.818 93.5301C166.607 93.5301 168.013 93.9732 169.036 94.8595C170.076 95.7457 170.672 96.9217 170.826 98.3875H166.786C166.718 97.8932 166.497 97.5012 166.122 97.2115C165.764 96.9217 165.286 96.7769 164.69 96.7769C164.179 96.7769 163.787 96.8791 163.514 97.0837C163.241 97.2711 163.105 97.5353 163.105 97.8762C163.105 98.2852 163.318 98.592 163.744 98.7965C164.187 99.001 164.869 99.2056 165.789 99.4101C166.846 99.6828 167.707 99.9555 168.371 100.228C169.036 100.484 169.615 100.91 170.11 101.506C170.621 102.086 170.885 102.87 170.902 103.858C170.902 104.694 170.664 105.443 170.186 106.108C169.726 106.756 169.053 107.267 168.167 107.642C167.298 108.017 166.283 108.205 165.125 108.205ZM187.024 100.637C187.024 101.046 186.999 101.472 186.947 101.915H177.054C177.122 102.802 177.403 103.483 177.897 103.961C178.409 104.421 179.031 104.651 179.764 104.651C180.854 104.651 181.613 104.191 182.039 103.27H186.692C186.453 104.208 186.019 105.051 185.388 105.801C184.774 106.551 183.999 107.139 183.062 107.565C182.124 107.991 181.076 108.205 179.917 108.205C178.519 108.205 177.275 107.906 176.184 107.31C175.094 106.713 174.242 105.861 173.628 104.753C173.014 103.645 172.708 102.35 172.708 100.867C172.708 99.3845 173.006 98.0892 173.602 96.9814C174.216 95.8736 175.068 95.0214 176.159 94.4249C177.25 93.8283 178.502 93.5301 179.917 93.5301C181.298 93.5301 182.525 93.8198 183.598 94.3993C184.672 94.9788 185.507 95.8054 186.104 96.8791C186.717 97.9529 187.024 99.2056 187.024 100.637ZM182.55 99.4868C182.55 98.7369 182.295 98.1403 181.783 97.6972C181.272 97.2541 180.633 97.0325 179.866 97.0325C179.133 97.0325 178.511 97.2456 178 97.6717C177.505 98.0977 177.199 98.7028 177.079 99.4868H182.55ZM193.879 100.867C193.879 99.3845 194.177 98.0892 194.774 96.9814C195.387 95.8736 196.231 95.0214 197.305 94.4249C198.395 93.8283 199.639 93.5301 201.037 93.5301C202.827 93.5301 204.318 93.9988 205.511 94.9362C206.721 95.8736 207.514 97.1944 207.889 98.8988H203.236C202.844 97.808 202.085 97.2626 200.96 97.2626C200.159 97.2626 199.52 97.5779 199.043 98.2085C198.566 98.8221 198.327 99.7083 198.327 100.867C198.327 102.026 198.566 102.921 199.043 103.552C199.52 104.165 200.159 104.472 200.96 104.472C202.085 104.472 202.844 103.927 203.236 102.836H207.889C207.514 104.506 206.721 105.818 205.511 106.773C204.301 107.727 202.81 108.205 201.037 108.205C199.639 108.205 198.395 107.906 197.305 107.31C196.231 106.713 195.387 105.861 194.774 104.753C194.177 103.645 193.879 102.35 193.879 100.867ZM216.721 108.205C215.323 108.205 214.062 107.906 212.937 107.31C211.829 106.713 210.951 105.861 210.304 104.753C209.673 103.645 209.358 102.35 209.358 100.867C209.358 99.4016 209.682 98.1148 210.329 97.007C210.977 95.8821 211.863 95.0214 212.988 94.4249C214.113 93.8283 215.374 93.5301 216.772 93.5301C218.169 93.5301 219.43 93.8283 220.555 94.4249C221.68 95.0214 222.566 95.8821 223.214 97.007C223.862 98.1148 224.186 99.4016 224.186 100.867C224.186 102.333 223.853 103.628 223.189 104.753C222.541 105.861 221.646 106.713 220.504 107.31C219.379 107.906 218.118 108.205 216.721 108.205ZM216.721 104.421C217.556 104.421 218.263 104.114 218.842 103.501C219.439 102.887 219.737 102.009 219.737 100.867C219.737 99.7254 219.447 98.8477 218.868 98.2341C218.306 97.6205 217.607 97.3137 216.772 97.3137C215.919 97.3137 215.212 97.6205 214.65 98.2341C214.087 98.8306 213.806 99.7083 213.806 100.867C213.806 102.009 214.079 102.887 214.624 103.501C215.187 104.114 215.885 104.421 216.721 104.421ZM232.998 108.205C231.601 108.205 230.34 107.906 229.215 107.31C228.107 106.713 227.229 105.861 226.581 104.753C225.951 103.645 225.636 102.35 225.636 100.867C225.636 99.4016 225.959 98.1148 226.607 97.007C227.255 95.8821 228.141 95.0214 229.266 94.4249C230.391 93.8283 231.652 93.5301 233.049 93.5301C234.447 93.5301 235.708 93.8283 236.833 94.4249C237.958 95.0214 238.844 95.8821 239.492 97.007C240.14 98.1148 240.463 99.4016 240.463 100.867C240.463 102.333 240.131 103.628 239.466 104.753C238.819 105.861 237.924 106.713 236.782 107.31C235.657 107.906 234.396 108.205 232.998 108.205ZM232.998 104.421C233.833 104.421 234.541 104.114 235.12 103.501C235.717 102.887 236.015 102.009 236.015 100.867C236.015 99.7254 235.725 98.8477 235.146 98.2341C234.583 97.6205 233.885 97.3137 233.049 97.3137C232.197 97.3137 231.49 97.6205 230.928 98.2341C230.365 98.8306 230.084 99.7083 230.084 100.867C230.084 102.009 230.357 102.887 230.902 103.501C231.464 104.114 232.163 104.421 232.998 104.421ZM251.5 108L247.154 102.018V108H242.783V89.0817H247.154V99.5379L251.475 93.7346H256.869L250.938 100.893L256.92 108H251.5ZM260.785 92.2518C260.018 92.2518 259.387 92.0303 258.893 91.5871C258.416 91.127 258.177 90.5645 258.177 89.8998C258.177 89.2181 258.416 88.6557 258.893 88.2125C259.387 87.7523 260.018 87.5223 260.785 87.5223C261.535 87.5223 262.148 87.7523 262.625 88.2125C263.12 88.6557 263.367 89.2181 263.367 89.8998C263.367 90.5645 263.12 91.127 262.625 91.5871C262.148 92.0303 261.535 92.2518 260.785 92.2518ZM262.958 93.7346V108H258.586V93.7346H262.958ZM279.573 100.637C279.573 101.046 279.548 101.472 279.496 101.915H269.603C269.671 102.802 269.952 103.483 270.446 103.961C270.958 104.421 271.58 104.651 272.313 104.651C273.403 104.651 274.162 104.191 274.588 103.27H279.241C279.002 104.208 278.568 105.051 277.937 105.801C277.323 106.551 276.548 107.139 275.611 107.565C274.673 107.991 273.625 108.205 272.466 108.205C271.068 108.205 269.824 107.906 268.734 107.31C267.643 106.713 266.791 105.861 266.177 104.753C265.563 103.645 265.257 102.35 265.257 100.867C265.257 99.3845 265.555 98.0892 266.151 96.9814C266.765 95.8736 267.617 95.0214 268.708 94.4249C269.799 93.8283 271.051 93.5301 272.466 93.5301C273.847 93.5301 275.074 93.8198 276.147 94.3993C277.221 94.9788 278.056 95.8054 278.653 96.8791C279.266 97.9529 279.573 99.2056 279.573 100.637ZM275.099 99.4868C275.099 98.7369 274.844 98.1403 274.332 97.6972C273.821 97.2541 273.182 97.0325 272.415 97.0325C271.682 97.0325 271.06 97.2456 270.549 97.6717C270.054 98.0977 269.748 98.7028 269.628 99.4868H275.099ZM287.683 108.205C286.439 108.205 285.331 107.991 284.359 107.565C283.388 107.139 282.621 106.56 282.058 105.827C281.496 105.077 281.181 104.242 281.112 103.322H285.433C285.484 103.816 285.714 104.216 286.123 104.523C286.532 104.83 287.035 104.983 287.632 104.983C288.177 104.983 288.595 104.881 288.884 104.677C289.191 104.455 289.344 104.174 289.344 103.833C289.344 103.424 289.131 103.126 288.705 102.938C288.279 102.734 287.589 102.512 286.635 102.273C285.612 102.035 284.76 101.788 284.078 101.532C283.396 101.259 282.808 100.842 282.314 100.279C281.82 99.6998 281.573 98.9243 281.573 97.9529C281.573 97.1348 281.794 96.3934 282.237 95.7287C282.698 95.047 283.362 94.5101 284.231 94.1181C285.118 93.7261 286.166 93.5301 287.376 93.5301C289.166 93.5301 290.572 93.9732 291.594 94.8595C292.634 95.7457 293.23 96.9217 293.384 98.3875H289.344C289.276 97.8932 289.055 97.5012 288.68 97.2115C288.322 96.9217 287.845 96.7769 287.248 96.7769C286.737 96.7769 286.345 96.8791 286.072 97.0837C285.799 97.2711 285.663 97.5353 285.663 97.8762C285.663 98.2852 285.876 98.592 286.302 98.7965C286.745 99.001 287.427 99.2056 288.347 99.4101C289.404 99.6828 290.265 99.9555 290.93 100.228C291.594 100.484 292.174 100.91 292.668 101.506C293.179 102.086 293.443 102.87 293.46 103.858C293.46 104.694 293.222 105.443 292.745 106.108C292.284 106.756 291.611 107.267 290.725 107.642C289.856 108.017 288.842 108.205 287.683 108.205Z" fill="black"/>
<rect x="120" y="150" width="463" height="5" fill="#D9D9D9"/>
<rect x="92" y="171" width="491" height="5" fill="#D9D9D9"/>
<rect x="92" y="192" width="491" height="5" fill="#D9D9D9"/>
<rect x="92" y="213" width="491" height="5" fill="#D9D9D9"/>
<rect x="92" y="234" width="491" height="5" fill="#D9D9D9"/>
<rect x="92" y="255" width="491" height="5" fill="#D9D9D9"/>
<rect x="92" y="276" width="491" height="5" fill="#D9D9D9"/>
<rect x="92" y="297" width="451" height="5" fill="#D9D9D9"/>
<rect x="120" y="318" width="463" height="5" fill="#D9D9D9"/>
<rect x="92" y="339" width="491" height="5" fill="#D9D9D9"/>
<rect x="92" y="360" width="491" height="5" fill="#D9D9D9"/>
<rect x="92" y="381" width="491" height="5" fill="#D9D9D9"/>
<rect x="92" y="402" width="491" height="5" fill="#D9D9D9"/>
<rect x="92" y="423" width="491" height="5" fill="#D9D9D9"/>
<rect x="92" y="444" width="491" height="5" fill="#D9D9D9"/>
<rect x="92" y="465" width="451" height="5" fill="#FFA216"/>
<rect x="92" y="465" width="222" height="5" fill="#D9D9D9"/>
<path d="M330.556 571.654C329.544 571.654 328.635 571.478 327.828 571.126C327.036 570.759 326.413 570.261 325.958 569.63C325.503 568.985 325.269 568.244 325.254 567.408H327.388C327.461 568.127 327.755 568.735 328.268 569.234C328.796 569.718 329.559 569.96 330.556 569.96C331.509 569.96 332.257 569.725 332.8 569.256C333.357 568.772 333.636 568.156 333.636 567.408C333.636 566.821 333.475 566.345 333.152 565.978C332.829 565.611 332.426 565.333 331.942 565.142C331.458 564.951 330.805 564.746 329.984 564.526C328.972 564.262 328.158 563.998 327.542 563.734C326.941 563.47 326.42 563.059 325.98 562.502C325.555 561.93 325.342 561.167 325.342 560.214C325.342 559.378 325.555 558.637 325.98 557.992C326.405 557.347 326.999 556.848 327.762 556.496C328.539 556.144 329.427 555.968 330.424 555.968C331.861 555.968 333.035 556.327 333.944 557.046C334.868 557.765 335.389 558.718 335.506 559.906H333.306C333.233 559.319 332.925 558.806 332.382 558.366C331.839 557.911 331.121 557.684 330.226 557.684C329.39 557.684 328.708 557.904 328.18 558.344C327.652 558.769 327.388 559.371 327.388 560.148C327.388 560.705 327.542 561.16 327.85 561.512C328.173 561.864 328.561 562.135 329.016 562.326C329.485 562.502 330.138 562.707 330.974 562.942C331.986 563.221 332.8 563.499 333.416 563.778C334.032 564.042 334.56 564.46 335 565.032C335.44 565.589 335.66 566.352 335.66 567.32C335.66 568.068 335.462 568.772 335.066 569.432C334.67 570.092 334.083 570.627 333.306 571.038C332.529 571.449 331.612 571.654 330.556 571.654ZM349.606 565.01C349.606 565.391 349.584 565.795 349.54 566.22H339.904C339.977 567.408 340.381 568.339 341.114 569.014C341.862 569.674 342.764 570.004 343.82 570.004C344.685 570.004 345.404 569.806 345.976 569.41C346.563 568.999 346.973 568.457 347.208 567.782H349.364C349.041 568.941 348.396 569.887 347.428 570.62C346.46 571.339 345.257 571.698 343.82 571.698C342.676 571.698 341.649 571.441 340.74 570.928C339.845 570.415 339.141 569.689 338.628 568.75C338.115 567.797 337.858 566.697 337.858 565.45C337.858 564.203 338.107 563.111 338.606 562.172C339.105 561.233 339.801 560.515 340.696 560.016C341.605 559.503 342.647 559.246 343.82 559.246C344.964 559.246 345.976 559.495 346.856 559.994C347.736 560.493 348.411 561.182 348.88 562.062C349.364 562.927 349.606 563.91 349.606 565.01ZM347.538 564.592C347.538 563.829 347.369 563.177 347.032 562.634C346.695 562.077 346.233 561.659 345.646 561.38C345.074 561.087 344.436 560.94 343.732 560.94C342.72 560.94 341.855 561.263 341.136 561.908C340.432 562.553 340.029 563.448 339.926 564.592H347.538ZM354.691 561.094V568.2C354.691 568.787 354.815 569.205 355.065 569.454C355.314 569.689 355.747 569.806 356.363 569.806H357.837V571.5H356.033C354.918 571.5 354.082 571.243 353.525 570.73C352.967 570.217 352.689 569.373 352.689 568.2V561.094H351.127V559.444H352.689V556.408H354.691V559.444H357.837V561.094H354.691ZM362.704 561.094V568.2C362.704 568.787 362.829 569.205 363.078 569.454C363.328 569.689 363.76 569.806 364.376 569.806H365.85V571.5H364.046C362.932 571.5 362.096 571.243 361.538 570.73C360.981 570.217 360.702 569.373 360.702 568.2V561.094H359.14V559.444H360.702V556.408H362.704V559.444H365.85V561.094H362.704ZM369.31 557.486C368.929 557.486 368.606 557.354 368.342 557.09C368.078 556.826 367.946 556.503 367.946 556.122C367.946 555.741 368.078 555.418 368.342 555.154C368.606 554.89 368.929 554.758 369.31 554.758C369.677 554.758 369.985 554.89 370.234 555.154C370.498 555.418 370.63 555.741 370.63 556.122C370.63 556.503 370.498 556.826 370.234 557.09C369.985 557.354 369.677 557.486 369.31 557.486ZM370.278 559.444V571.5H368.276V559.444H370.278ZM379.564 559.224C381.031 559.224 382.219 559.671 383.128 560.566C384.037 561.446 384.492 562.722 384.492 564.394V571.5H382.512V564.68C382.512 563.477 382.211 562.561 381.61 561.93C381.009 561.285 380.187 560.962 379.146 560.962C378.09 560.962 377.247 561.292 376.616 561.952C376 562.612 375.692 563.573 375.692 564.834V571.5H373.69V559.444H375.692V561.16C376.088 560.544 376.623 560.067 377.298 559.73C377.987 559.393 378.743 559.224 379.564 559.224ZM392.734 559.246C393.776 559.246 394.685 559.473 395.462 559.928C396.254 560.383 396.841 560.955 397.222 561.644V559.444H399.246V571.764C399.246 572.864 399.012 573.839 398.542 574.69C398.073 575.555 397.398 576.23 396.518 576.714C395.653 577.198 394.641 577.44 393.482 577.44C391.898 577.44 390.578 577.066 389.522 576.318C388.466 575.57 387.843 574.551 387.652 573.26H389.632C389.852 573.993 390.307 574.58 390.996 575.02C391.686 575.475 392.514 575.702 393.482 575.702C394.582 575.702 395.477 575.357 396.166 574.668C396.87 573.979 397.222 573.011 397.222 571.764V569.234C396.826 569.938 396.24 570.525 395.462 570.994C394.685 571.463 393.776 571.698 392.734 571.698C391.664 571.698 390.688 571.434 389.808 570.906C388.943 570.378 388.261 569.637 387.762 568.684C387.264 567.731 387.014 566.645 387.014 565.428C387.014 564.196 387.264 563.118 387.762 562.194C388.261 561.255 388.943 560.529 389.808 560.016C390.688 559.503 391.664 559.246 392.734 559.246ZM397.222 565.45C397.222 564.541 397.039 563.749 396.672 563.074C396.306 562.399 395.807 561.886 395.176 561.534C394.56 561.167 393.878 560.984 393.13 560.984C392.382 560.984 391.7 561.16 391.084 561.512C390.468 561.864 389.977 562.377 389.61 563.052C389.244 563.727 389.06 564.519 389.06 565.428C389.06 566.352 389.244 567.159 389.61 567.848C389.977 568.523 390.468 569.043 391.084 569.41C391.7 569.762 392.382 569.938 393.13 569.938C393.878 569.938 394.56 569.762 395.176 569.41C395.807 569.043 396.306 568.523 396.672 567.848C397.039 567.159 397.222 566.359 397.222 565.45ZM406.898 571.698C405.974 571.698 405.145 571.544 404.412 571.236C403.678 570.913 403.099 570.473 402.674 569.916C402.248 569.344 402.014 568.691 401.97 567.958H404.038C404.096 568.559 404.375 569.051 404.874 569.432C405.387 569.813 406.054 570.004 406.876 570.004C407.638 570.004 408.24 569.835 408.68 569.498C409.12 569.161 409.34 568.735 409.34 568.222C409.34 567.694 409.105 567.305 408.636 567.056C408.166 566.792 407.44 566.535 406.458 566.286C405.563 566.051 404.83 565.817 404.258 565.582C403.7 565.333 403.216 564.973 402.806 564.504C402.41 564.02 402.212 563.389 402.212 562.612C402.212 561.996 402.395 561.431 402.762 560.918C403.128 560.405 403.649 560.001 404.324 559.708C404.998 559.4 405.768 559.246 406.634 559.246C407.968 559.246 409.046 559.583 409.868 560.258C410.689 560.933 411.129 561.857 411.188 563.03H409.186C409.142 562.399 408.885 561.893 408.416 561.512C407.961 561.131 407.345 560.94 406.568 560.94C405.849 560.94 405.277 561.094 404.852 561.402C404.426 561.71 404.214 562.113 404.214 562.612C404.214 563.008 404.338 563.338 404.588 563.602C404.852 563.851 405.174 564.057 405.556 564.218C405.952 564.365 406.494 564.533 407.184 564.724C408.049 564.959 408.753 565.193 409.296 565.428C409.838 565.648 410.3 565.985 410.682 566.44C411.078 566.895 411.283 567.489 411.298 568.222C411.298 568.882 411.114 569.476 410.748 570.004C410.381 570.532 409.86 570.95 409.186 571.258C408.526 571.551 407.763 571.698 406.898 571.698Z" fill="black"/>
<path d="M324 573.7H412.42V574.8H324V573.7Z" fill="black"/>
<rect x="433" y="534" width="150" height="60" rx="8" fill="#202354"/>
<path d="M463.962 568.59H457.274L456.042 572H453.93L459.474 556.754H461.784L467.306 572H465.194L463.962 568.59ZM463.39 566.962L460.618 559.218L457.846 566.962H463.39ZM468.974 565.95C468.974 564.703 469.224 563.618 469.722 562.694C470.221 561.755 470.91 561.029 471.79 560.516C472.685 560.003 473.704 559.746 474.848 559.746C476.33 559.746 477.547 560.105 478.5 560.824C479.468 561.543 480.106 562.54 480.414 563.816H478.258C478.053 563.083 477.65 562.503 477.048 562.078C476.462 561.653 475.728 561.44 474.848 561.44C473.704 561.44 472.78 561.836 472.076 562.628C471.372 563.405 471.02 564.513 471.02 565.95C471.02 567.402 471.372 568.524 472.076 569.316C472.78 570.108 473.704 570.504 474.848 570.504C475.728 570.504 476.462 570.299 477.048 569.888C477.635 569.477 478.038 568.891 478.258 568.128H480.414C480.092 569.36 479.446 570.35 478.478 571.098C477.51 571.831 476.3 572.198 474.848 572.198C473.704 572.198 472.685 571.941 471.79 571.428C470.91 570.915 470.221 570.189 469.722 569.25C469.224 568.311 468.974 567.211 468.974 565.95ZM482.338 565.95C482.338 564.703 482.587 563.618 483.086 562.694C483.584 561.755 484.274 561.029 485.154 560.516C486.048 560.003 487.068 559.746 488.212 559.746C489.693 559.746 490.91 560.105 491.864 560.824C492.832 561.543 493.47 562.54 493.778 563.816H491.622C491.416 563.083 491.013 562.503 490.412 562.078C489.825 561.653 489.092 561.44 488.212 561.44C487.068 561.44 486.144 561.836 485.44 562.628C484.736 563.405 484.384 564.513 484.384 565.95C484.384 567.402 484.736 568.524 485.44 569.316C486.144 570.108 487.068 570.504 488.212 570.504C489.092 570.504 489.825 570.299 490.412 569.888C490.998 569.477 491.402 568.891 491.622 568.128H493.778C493.455 569.36 492.81 570.35 491.842 571.098C490.874 571.831 489.664 572.198 488.212 572.198C487.068 572.198 486.048 571.941 485.154 571.428C484.274 570.915 483.584 570.189 483.086 569.25C482.587 568.311 482.338 567.211 482.338 565.95ZM507.449 565.51C507.449 565.891 507.427 566.295 507.383 566.72H497.747C497.82 567.908 498.224 568.839 498.957 569.514C499.705 570.174 500.607 570.504 501.663 570.504C502.528 570.504 503.247 570.306 503.819 569.91C504.406 569.499 504.816 568.957 505.051 568.282H507.207C506.884 569.441 506.239 570.387 505.271 571.12C504.303 571.839 503.1 572.198 501.663 572.198C500.519 572.198 499.492 571.941 498.583 571.428C497.688 570.915 496.984 570.189 496.471 569.25C495.958 568.297 495.701 567.197 495.701 565.95C495.701 564.703 495.95 563.611 496.449 562.672C496.948 561.733 497.644 561.015 498.539 560.516C499.448 560.003 500.49 559.746 501.663 559.746C502.807 559.746 503.819 559.995 504.699 560.494C505.579 560.993 506.254 561.682 506.723 562.562C507.207 563.427 507.449 564.41 507.449 565.51ZM505.381 565.092C505.381 564.329 505.212 563.677 504.875 563.134C504.538 562.577 504.076 562.159 503.489 561.88C502.917 561.587 502.279 561.44 501.575 561.44C500.563 561.44 499.698 561.763 498.979 562.408C498.275 563.053 497.872 563.948 497.769 565.092H505.381ZM512.093 562.166C512.489 561.477 513.076 560.905 513.853 560.45C514.645 559.981 515.562 559.746 516.603 559.746C517.674 559.746 518.642 560.003 519.507 560.516C520.387 561.029 521.077 561.755 521.575 562.694C522.074 563.618 522.323 564.696 522.323 565.928C522.323 567.145 522.074 568.231 521.575 569.184C521.077 570.137 520.387 570.878 519.507 571.406C518.642 571.934 517.674 572.198 516.603 572.198C515.577 572.198 514.667 571.971 513.875 571.516C513.098 571.047 512.504 570.467 512.093 569.778V577.72H510.091V559.944H512.093V562.166ZM520.277 565.928C520.277 565.019 520.094 564.227 519.727 563.552C519.361 562.877 518.862 562.364 518.231 562.012C517.615 561.66 516.933 561.484 516.185 561.484C515.452 561.484 514.77 561.667 514.139 562.034C513.523 562.386 513.025 562.907 512.643 563.596C512.277 564.271 512.093 565.055 512.093 565.95C512.093 566.859 512.277 567.659 512.643 568.348C513.025 569.023 513.523 569.543 514.139 569.91C514.77 570.262 515.452 570.438 516.185 570.438C516.933 570.438 517.615 570.262 518.231 569.91C518.862 569.543 519.361 569.023 519.727 568.348C520.094 567.659 520.277 566.852 520.277 565.928ZM527.401 561.594V568.7C527.401 569.287 527.525 569.705 527.775 569.954C528.024 570.189 528.457 570.306 529.073 570.306H530.547V572H528.743C527.628 572 526.792 571.743 526.235 571.23C525.677 570.717 525.399 569.873 525.399 568.7V561.594H523.837V559.944H525.399V556.908H527.401V559.944H530.547V561.594H527.401ZM547.902 568.59H541.214L539.982 572H537.87L543.414 556.754H545.724L551.246 572H549.134L547.902 568.59ZM547.33 566.962L544.558 559.218L541.786 566.962H547.33ZM555.664 555.72V572H553.662V555.72H555.664ZM561.078 555.72V572H559.076V555.72H561.078Z" fill="white"/>
<rect width="554" height="35" transform="translate(52 629)" fill="#BCBCBC"/>
<path d="M380.071 651.5V641.793H384.66C385.115 641.793 385.523 641.872 385.884 642.029C386.246 642.177 386.552 642.386 386.802 642.655C387.062 642.924 387.261 643.253 387.4 643.642C387.539 644.023 387.609 644.44 387.609 644.894C387.609 645.358 387.539 645.779 387.4 646.16C387.261 646.54 387.062 646.864 386.802 647.133C386.552 647.402 386.246 647.615 385.884 647.773C385.523 647.921 385.115 647.995 384.66 647.995H382.185V651.5H380.071ZM382.185 646.16H384.41C384.725 646.16 384.971 646.081 385.147 645.923C385.332 645.756 385.425 645.515 385.425 645.2V644.588C385.425 644.273 385.332 644.036 385.147 643.879C384.971 643.712 384.725 643.628 384.41 643.628H382.185V646.16ZM391.638 651.667C391.1 651.667 390.618 651.579 390.191 651.403C389.774 651.226 389.417 650.972 389.121 650.638C388.833 650.304 388.611 649.901 388.453 649.428C388.295 648.955 388.217 648.426 388.217 647.842C388.217 647.258 388.295 646.73 388.453 646.257C388.611 645.784 388.833 645.385 389.121 645.061C389.417 644.727 389.774 644.472 390.191 644.296C390.618 644.12 391.1 644.032 391.638 644.032C392.176 644.032 392.653 644.12 393.07 644.296C393.497 644.472 393.854 644.727 394.141 645.061C394.438 645.385 394.665 645.784 394.823 646.257C394.98 646.73 395.059 647.258 395.059 647.842C395.059 648.426 394.98 648.955 394.823 649.428C394.665 649.901 394.438 650.304 394.141 650.638C393.854 650.972 393.497 651.226 393.07 651.403C392.653 651.579 392.176 651.667 391.638 651.667ZM391.638 650.04C392.046 650.04 392.361 649.915 392.584 649.664C392.806 649.414 392.917 649.057 392.917 648.593V647.105C392.917 646.642 392.806 646.285 392.584 646.034C392.361 645.784 392.046 645.659 391.638 645.659C391.23 645.659 390.915 645.784 390.692 646.034C390.47 646.285 390.358 646.642 390.358 647.105V648.593C390.358 649.057 390.47 649.414 390.692 649.664C390.915 649.915 391.23 650.04 391.638 650.04ZM395.555 644.199H397.544L398.253 647.147L398.754 649.372H398.81L399.394 647.147L400.228 644.199H402.106L402.954 647.147L403.552 649.372H403.608L404.108 647.147L404.818 644.199H406.723L404.706 651.5H402.551L401.661 648.413L401.146 646.521H401.104L400.604 648.413L399.714 651.5H397.6L395.555 644.199ZM410.715 651.667C410.159 651.667 409.663 651.579 409.227 651.403C408.791 651.217 408.42 650.962 408.114 650.638C407.818 650.304 407.591 649.901 407.433 649.428C407.285 648.955 407.21 648.426 407.21 647.842C407.21 647.268 407.285 646.748 407.433 646.285C407.581 645.812 407.799 645.409 408.087 645.075C408.383 644.741 408.745 644.486 409.171 644.31C409.598 644.125 410.085 644.032 410.632 644.032C411.234 644.032 411.749 644.134 412.175 644.338C412.611 644.542 412.963 644.815 413.232 645.158C413.51 645.501 413.71 645.9 413.83 646.354C413.96 646.799 414.025 647.268 414.025 647.759V648.371H409.338V648.482C409.338 648.964 409.468 649.349 409.728 649.636C409.987 649.915 410.395 650.054 410.951 650.054C411.378 650.054 411.726 649.97 411.995 649.803C412.263 649.627 412.514 649.419 412.745 649.177L413.775 650.457C413.45 650.837 413.024 651.134 412.495 651.347C411.976 651.56 411.383 651.667 410.715 651.667ZM410.673 645.548C410.256 645.548 409.927 645.687 409.686 645.965C409.454 646.234 409.338 646.595 409.338 647.05V647.161H411.897V647.036C411.897 646.591 411.795 646.234 411.591 645.965C411.396 645.687 411.091 645.548 410.673 645.548ZM415.34 651.5V644.199H417.398V645.784H417.467C417.504 645.58 417.569 645.385 417.662 645.2C417.755 645.005 417.875 644.834 418.024 644.685C418.181 644.537 418.367 644.421 418.58 644.338C418.793 644.245 419.044 644.199 419.331 644.199H419.693V646.118H419.178C418.575 646.118 418.126 646.197 417.829 646.354C417.542 646.512 417.398 646.804 417.398 647.23V651.5H415.34ZM423.801 651.667C423.245 651.667 422.749 651.579 422.313 651.403C421.877 651.217 421.506 650.962 421.2 650.638C420.904 650.304 420.676 649.901 420.519 649.428C420.37 648.955 420.296 648.426 420.296 647.842C420.296 647.268 420.37 646.748 420.519 646.285C420.667 645.812 420.885 645.409 421.172 645.075C421.469 644.741 421.831 644.486 422.257 644.31C422.684 644.125 423.17 644.032 423.717 644.032C424.32 644.032 424.835 644.134 425.261 644.338C425.697 644.542 426.049 644.815 426.318 645.158C426.596 645.501 426.796 645.9 426.916 646.354C427.046 646.799 427.111 647.268 427.111 647.759V648.371H422.424V648.482C422.424 648.964 422.554 649.349 422.814 649.636C423.073 649.915 423.481 650.054 424.037 650.054C424.464 650.054 424.812 649.97 425.08 649.803C425.349 649.627 425.6 649.419 425.831 649.177L426.861 650.457C426.536 650.837 426.11 651.134 425.581 651.347C425.062 651.56 424.468 651.667 423.801 651.667ZM423.759 645.548C423.342 645.548 423.013 645.687 422.772 645.965C422.54 646.234 422.424 646.595 422.424 647.05V647.161H424.983V647.036C424.983 646.591 424.881 646.234 424.677 645.965C424.482 645.687 424.176 645.548 423.759 645.548ZM432.904 650.276H432.834C432.778 650.471 432.69 650.656 432.57 650.832C432.449 650.999 432.301 651.148 432.125 651.277C431.958 651.398 431.763 651.491 431.541 651.556C431.327 651.63 431.105 651.667 430.873 651.667C429.946 651.667 429.246 651.342 428.773 650.693C428.3 650.035 428.064 649.085 428.064 647.842C428.064 646.6 428.3 645.654 428.773 645.005C429.246 644.356 429.946 644.032 430.873 644.032C431.346 644.032 431.763 644.162 432.125 644.421C432.496 644.681 432.732 645.015 432.834 645.423H432.904V641.209H434.962V651.5H432.904V650.276ZM431.555 649.998C431.944 649.998 432.264 649.905 432.514 649.72C432.774 649.525 432.904 649.261 432.904 648.927V646.772C432.904 646.438 432.774 646.178 432.514 645.993C432.264 645.798 431.944 645.701 431.555 645.701C431.165 645.701 430.841 645.84 430.581 646.118C430.331 646.387 430.206 646.753 430.206 647.217V648.482C430.206 648.946 430.331 649.317 430.581 649.595C430.841 649.864 431.165 649.998 431.555 649.998ZM439.895 641.209H441.953V645.423H442.023C442.125 645.015 442.357 644.681 442.718 644.421C443.089 644.162 443.511 644.032 443.984 644.032C444.911 644.032 445.611 644.356 446.084 645.005C446.557 645.654 446.793 646.6 446.793 647.842C446.793 649.085 446.557 650.035 446.084 650.693C445.611 651.342 444.911 651.667 443.984 651.667C443.743 651.667 443.516 651.63 443.302 651.556C443.089 651.491 442.894 651.398 442.718 651.277C442.551 651.148 442.408 650.999 442.287 650.832C442.167 650.656 442.079 650.471 442.023 650.276H441.953V651.5H439.895V641.209ZM443.302 649.998C443.692 649.998 444.012 649.864 444.262 649.595C444.522 649.317 444.651 648.946 444.651 648.482V647.217C444.651 646.753 444.522 646.387 444.262 646.118C444.012 645.84 443.692 645.701 443.302 645.701C442.913 645.701 442.589 645.798 442.329 645.993C442.079 646.178 441.953 646.438 441.953 646.772V648.927C441.953 649.261 442.079 649.525 442.329 649.72C442.589 649.905 442.913 649.998 443.302 649.998ZM452.546 644.199H454.465L451.656 652.626C451.47 653.192 451.206 653.609 450.863 653.878C450.529 654.147 450.047 654.281 449.417 654.281H448.137V652.682H449.514L449.764 651.875L447.205 644.199H449.25L450.32 647.606L450.849 649.72H450.932L451.475 647.606L452.546 644.199Z" fill="#939393"/>
<path d="M483.816 639.268C482.508 637.959 480.429 637.894 479.042 639.07C478.104 639.746 477.308 641.083 476.984 643.547C476.984 643.547 476.643 645.529 476.442 646.498L479.88 642.708L476.577 646.644C477.542 646.444 479.537 646.101 479.537 646.101C482 645.777 483.337 644.981 484.014 644.043C485.19 642.656 485.125 640.577 483.816 639.269V639.268Z" fill="white"/>
<path d="M483.783 648.178H480.119C479.46 648.058 477.637 647.72 476.693 647.513L480.019 651.476L476.558 647.66C476.731 648.533 476.999 650.127 477.126 650.895V654.835C477.126 655.125 477.362 655.36 477.65 655.36H483.783C484.072 655.36 484.307 655.123 484.307 654.835V648.703C484.307 648.414 484.071 648.178 483.783 648.178Z" fill="#23275D"/>
<path d="M472.233 642.708L475.633 646.455C475.406 645.323 475.057 643.236 474.89 642.232V637.105C474.89 636.729 474.583 636.421 474.206 636.421H466.225C465.85 636.421 465.542 636.728 465.542 637.105V645.085C465.542 645.461 465.849 645.769 466.225 645.769H470.995C471.874 645.931 474.345 646.388 475.545 646.656L472.233 642.709V642.708Z" fill="#23275D"/>
<path d="M472.096 651.476L475.534 647.379C474.304 647.748 471.763 648.419 471.763 648.419C468.605 649.119 466.962 650.301 466.192 651.594C464.824 653.526 465.146 656.214 466.99 657.762C468.834 659.31 471.538 659.159 473.202 657.476C474.342 656.493 475.221 654.668 475.363 651.439C475.363 651.439 475.591 648.697 475.742 647.459L472.097 651.477L472.096 651.476Z" fill="#FFA216"/>
<path d="M502.098 648.47V652.604C501.962 652.636 501.766 652.684 501.479 652.716C501.191 652.748 500.919 652.764 500.647 652.764C500.375 652.764 500.134 652.748 499.937 652.7C499.725 652.652 499.559 652.572 499.423 652.46C499.287 652.348 499.181 652.187 499.106 651.995C499.03 651.803 499 651.53 499 651.21V641.341C499.136 641.309 499.332 641.277 499.62 641.245C499.907 641.197 500.179 641.181 500.436 641.181C500.708 641.181 500.95 641.197 501.146 641.245C501.358 641.293 501.524 641.373 501.66 641.485C501.796 641.597 501.902 641.757 501.977 641.95C502.053 642.142 502.083 642.414 502.083 642.735V645.699L505.756 641.229C506.557 641.229 507.131 641.389 507.479 641.709C507.826 642.03 507.993 642.398 507.993 642.847C507.993 643.167 507.917 643.472 507.766 643.76C507.615 644.048 507.373 644.369 507.025 644.737L504.819 647.077C505.106 647.429 505.423 647.781 505.741 648.166C506.058 648.534 506.375 648.903 506.693 649.255C507.01 649.608 507.297 649.944 507.585 650.281C507.872 650.601 508.129 650.89 508.34 651.114C508.34 651.386 508.295 651.627 508.204 651.835C508.114 652.043 507.977 652.219 507.826 652.38C507.675 652.524 507.494 652.636 507.282 652.716C507.086 652.796 506.874 652.828 506.647 652.828C506.164 652.828 505.771 652.7 505.469 652.444C505.166 652.187 504.864 651.883 504.592 651.53L502.098 648.47Z" fill="#23275D"/>
<path d="M509.836 643.084C509.836 642.555 509.987 642.123 510.274 641.818C510.562 641.514 510.97 641.354 511.468 641.354H517.287C517.363 641.498 517.438 641.674 517.514 641.898C517.574 642.123 517.605 642.363 517.605 642.603C517.605 643.084 517.514 643.42 517.317 643.613C517.121 643.805 516.864 643.917 516.547 643.917H512.829V645.647H516.788C516.864 645.791 516.94 645.968 517.015 646.176C517.076 646.4 517.106 646.625 517.106 646.881C517.106 647.362 517.015 647.698 516.819 647.89C516.637 648.082 516.38 648.195 516.063 648.195H512.829V650.149H517.363C517.438 650.293 517.514 650.47 517.589 650.694C517.65 650.918 517.68 651.159 517.68 651.399C517.68 651.88 517.589 652.216 517.393 652.424C517.197 652.633 516.94 652.729 516.622 652.729H511.484C510.985 652.729 510.577 652.568 510.29 652.264C510.002 651.96 509.851 651.527 509.851 650.998V643.084H509.836Z" fill="#23275D"/>
<path d="M529.167 652.283C529.001 652.459 528.759 652.587 528.457 652.683C528.139 652.78 527.776 652.828 527.338 652.828C526.9 652.828 526.492 652.764 526.099 652.619C525.706 652.475 525.388 652.155 525.147 651.626L523.409 647.845C523.227 647.46 523.076 647.092 522.94 646.756C522.804 646.419 522.653 646.019 522.487 645.57L522.381 645.586C522.426 646.259 522.456 646.948 522.456 647.637C522.456 648.342 522.472 649.015 522.472 649.687V652.587C522.336 652.619 522.139 652.667 521.882 652.699C521.625 652.731 521.353 652.748 521.096 652.748C520.839 652.748 520.613 652.731 520.416 652.699C520.22 652.667 520.053 652.587 519.917 652.475C519.781 652.363 519.691 652.203 519.615 652.011C519.54 651.818 519.509 651.562 519.509 651.258V641.917C519.676 641.661 519.932 641.484 520.265 641.356C520.613 641.228 520.975 641.164 521.353 641.164C521.791 641.164 522.199 641.228 522.592 641.372C522.985 641.517 523.303 641.837 523.529 642.35L525.298 646.131C525.479 646.515 525.63 646.884 525.766 647.22C525.902 647.557 526.053 647.957 526.22 648.406L526.31 648.39C526.265 647.717 526.235 647.044 526.22 646.371C526.205 645.698 526.205 645.025 526.205 644.352V641.324C526.341 641.292 526.537 641.244 526.794 641.212C527.051 641.18 527.323 641.164 527.58 641.164C528.094 641.164 528.487 641.26 528.759 641.452C529.031 641.645 529.167 642.045 529.167 642.654V652.283Z" fill="#23275D"/>
<path d="M534.487 648.162C533.973 647.97 533.505 647.778 533.082 647.585C532.658 647.393 532.296 647.153 531.993 646.88C531.691 646.608 531.449 646.288 531.283 645.903C531.117 645.519 531.026 645.054 531.026 644.509C531.026 643.452 531.404 642.603 532.175 641.962C532.946 641.321 534.019 641.017 535.409 641.017C535.908 641.017 536.391 641.049 536.815 641.129C537.253 641.209 537.616 641.321 537.933 641.481C538.25 641.641 538.492 641.834 538.658 642.074C538.84 642.314 538.915 642.603 538.915 642.923C538.915 643.244 538.84 643.532 538.704 643.756C538.568 643.981 538.386 644.189 538.19 644.349C537.933 644.173 537.585 644.029 537.147 643.884C536.709 643.756 536.24 643.692 535.726 643.692C535.197 643.692 534.804 643.772 534.563 643.932C534.321 644.093 534.2 644.285 534.2 644.525C534.2 644.718 534.276 644.862 534.427 644.99C534.578 645.102 534.804 645.214 535.107 645.31L536.044 645.631C537.147 645.999 537.993 646.48 538.583 647.057C539.172 647.633 539.475 648.418 539.475 649.412C539.475 650.469 539.082 651.334 538.296 651.975C537.51 652.632 536.346 652.953 534.82 652.953C534.276 652.953 533.777 652.904 533.308 652.808C532.84 652.712 532.432 652.584 532.099 652.392C531.752 652.216 531.479 651.991 531.283 651.719C531.087 651.447 530.996 651.142 530.996 650.79C530.996 650.421 531.102 650.117 531.298 649.86C531.495 649.604 531.721 649.412 531.948 649.268C532.281 649.54 532.673 649.78 533.157 649.973C533.626 650.165 534.155 650.277 534.714 650.277C535.288 650.277 535.696 650.181 535.923 650.005C536.165 649.812 536.27 649.604 536.27 649.348C536.27 649.091 536.18 648.915 535.983 648.771C535.802 648.643 535.53 648.515 535.197 648.386L534.487 648.162Z" fill="#23275D"/>
<path d="M541.167 643.085C541.167 642.556 541.318 642.124 541.605 641.819C541.892 641.515 542.3 641.354 542.799 641.354H548.618C548.693 641.499 548.769 641.675 548.844 641.899C548.905 642.124 548.935 642.364 548.935 642.604C548.935 643.085 548.844 643.421 548.648 643.614C548.452 643.806 548.195 643.918 547.877 643.918H544.159V645.648H548.119C548.195 645.792 548.27 645.969 548.346 646.177C548.406 646.401 548.436 646.626 548.436 646.882C548.436 647.363 548.346 647.699 548.149 647.891C547.968 648.083 547.711 648.196 547.394 648.196H544.144V650.15H548.678C548.754 650.294 548.829 650.471 548.905 650.695C548.965 650.919 548.996 651.16 548.996 651.4C548.996 651.881 548.905 652.217 548.708 652.425C548.512 652.634 548.255 652.73 547.938 652.73H542.799C542.3 652.73 541.892 652.569 541.605 652.265C541.318 651.961 541.167 651.528 541.167 650.999V643.085Z" fill="#23275D"/>
<path d="M560.497 652.283C560.33 652.459 560.089 652.587 559.786 652.683C559.469 652.78 559.106 652.828 558.668 652.828C558.23 652.828 557.822 652.764 557.429 652.619C557.036 652.475 556.718 652.155 556.476 651.626L554.738 647.845C554.557 647.46 554.406 647.092 554.27 646.756C554.134 646.419 553.983 646.019 553.816 645.57L553.711 645.586C553.756 646.259 553.786 646.948 553.786 647.637C553.786 648.342 553.801 649.015 553.801 649.687V652.587C553.665 652.619 553.469 652.667 553.212 652.699C552.955 652.731 552.683 652.748 552.426 652.748C552.169 652.748 551.942 652.731 551.746 652.699C551.549 652.667 551.383 652.587 551.247 652.475C551.111 652.363 551.02 652.203 550.945 652.011C550.869 651.818 550.839 651.562 550.839 651.258V641.917C551.005 641.661 551.262 641.484 551.595 641.356C551.942 641.228 552.305 641.164 552.683 641.164C553.121 641.164 553.529 641.228 553.922 641.372C554.315 641.517 554.633 641.837 554.859 642.35L556.628 646.131C556.809 646.515 556.96 646.884 557.096 647.22C557.232 647.557 557.383 647.957 557.55 648.406L557.64 648.39C557.595 647.717 557.565 647.044 557.55 646.371C557.534 645.698 557.534 645.025 557.534 644.352V641.324C557.67 641.292 557.867 641.244 558.124 641.212C558.381 641.18 558.653 641.164 558.91 641.164C559.424 641.164 559.817 641.26 560.089 641.452C560.361 641.645 560.497 642.045 560.497 642.654V652.283Z" fill="#23275D"/>
<path d="M562.295 643.966C562.22 643.821 562.144 643.645 562.068 643.405C561.993 643.165 561.963 642.924 561.963 642.652C561.963 642.171 562.068 641.819 562.265 641.61C562.477 641.402 562.733 641.29 563.066 641.29H570.744C570.819 641.434 570.895 641.61 570.97 641.851C571.046 642.091 571.076 642.331 571.076 642.604C571.076 643.084 570.97 643.437 570.774 643.645C570.562 643.853 570.305 643.966 569.973 643.966H568.023V652.601C567.887 652.633 567.691 652.681 567.419 652.713C567.147 652.745 566.875 652.761 566.603 652.761C566.33 652.761 566.089 652.745 565.892 652.697C565.681 652.649 565.514 652.569 565.378 652.457C565.242 652.345 565.137 652.185 565.061 651.992C564.985 651.8 564.955 651.528 564.955 651.207V643.966H562.295Z" fill="#23275D"/>
<path d="M571.591 646.992C571.591 646.015 571.742 645.166 572.029 644.413C572.316 643.66 572.709 643.035 573.208 642.538C573.706 642.041 574.296 641.657 574.976 641.385C575.656 641.128 576.382 641 577.167 641C577.953 641 578.679 641.128 579.359 641.385C580.039 641.641 580.629 642.025 581.127 642.538C581.626 643.035 582.034 643.676 582.321 644.413C582.608 645.166 582.76 646.015 582.76 646.992C582.76 647.969 582.624 648.818 582.336 649.571C582.049 650.324 581.656 650.949 581.157 651.462C580.659 651.959 580.069 652.343 579.389 652.615C578.709 652.872 577.969 653 577.167 653C576.366 653 575.626 652.872 574.946 652.599C574.266 652.327 573.676 651.943 573.178 651.43C572.679 650.917 572.301 650.292 572.014 649.539C571.742 648.802 571.591 647.953 571.591 646.992ZM574.764 646.992C574.764 648.13 574.976 648.979 575.414 649.539C575.853 650.1 576.427 650.372 577.152 650.372C577.893 650.372 578.482 650.1 578.921 649.539C579.359 648.979 579.571 648.13 579.571 646.992C579.571 645.87 579.359 645.037 578.921 644.477C578.498 643.916 577.908 643.644 577.167 643.644C576.442 643.644 575.853 643.916 575.414 644.477C574.991 645.021 574.764 645.854 574.764 646.992Z" fill="#23275D"/>
<path d="M587.756 595.831C588.461 595.451 588.813 595.261 588.903 595.033C588.98 594.835 588.958 594.612 588.844 594.432C588.712 594.226 588.329 594.108 587.564 593.872L572.594 589.261C571.969 589.068 571.656 588.972 571.445 589.049C571.261 589.117 571.116 589.262 571.049 589.445C570.972 589.657 571.068 589.969 571.26 590.594L575.872 605.565C576.108 606.33 576.225 606.712 576.432 606.844C576.611 606.958 576.835 606.98 577.033 606.903C577.261 606.814 577.451 606.461 577.83 605.756L581.153 599.586C581.209 599.482 581.237 599.429 581.274 599.383C581.306 599.343 581.343 599.306 581.383 599.274C581.429 599.238 581.481 599.209 581.586 599.153L587.756 595.831Z" fill="#FFA216"/>
<path d="M572 582.667V580.667M566.748 584.748L565.333 583.334M566.748 595.334L565.333 596.748M577.333 584.748L578.748 583.334M564.667 590H562.667M581.153 599.586L577.83 605.756C577.451 606.461 577.261 606.814 577.033 606.903C576.835 606.98 576.611 606.958 576.432 606.844C576.225 606.712 576.108 606.33 575.872 605.565L571.26 590.594C571.068 589.969 570.972 589.657 571.049 589.445C571.116 589.262 571.261 589.117 571.445 589.049C571.656 588.972 571.969 589.068 572.594 589.261L587.564 593.872C588.329 594.108 588.712 594.226 588.844 594.432C588.958 594.612 588.98 594.835 588.903 595.033C588.813 595.261 588.461 595.451 587.756 595.831L581.586 599.153C581.481 599.209 581.429 599.238 581.383 599.274C581.343 599.306 581.306 599.343 581.274 599.383C581.237 599.429 581.209 599.482 581.153 599.586Z" stroke="#FFA216" stroke-width="2.66667" stroke-linecap="round" stroke-linejoin="round"/>
<path d="M351.194 20H306.806C301.39 20 297 24.3901 297 29.8056V74.1944C297 79.6099 301.39 84 306.806 84H351.194C356.61 84 361 79.6099 361 74.1944V29.8056C361 24.3901 356.61 20 351.194 20Z" fill="#DDDDDD"/>
<path d="M346.632 36.535C344.016 33.9185 339.857 33.7874 337.083 36.1392C335.207 37.4912 333.616 40.1668 332.968 45.0941C332.968 45.0941 332.285 49.0574 331.884 50.9954L338.759 43.4157L332.154 51.2884C334.084 50.8875 338.073 50.2012 338.073 50.2012C343 49.5535 345.673 47.9625 347.028 46.0862C349.38 43.3129 349.249 39.1541 346.632 36.5376V36.535Z" fill="white"/>
<path d="M346.565 54.3568H339.237C337.919 54.1152 334.274 53.4392 332.385 53.0254L339.037 60.9521L332.115 53.321C332.462 55.0662 332.997 58.2533 333.251 59.7904V67.6709C333.251 68.2492 333.724 68.7195 334.3 68.7195H346.565C347.144 68.7195 347.614 68.2466 347.614 67.6709V55.4055C347.614 54.8272 347.141 54.3568 346.565 54.3568Z" fill="#23275D"/>
<path d="M323.466 43.4156L330.265 50.9106C329.812 48.6461 329.113 44.472 328.779 42.4646V32.2092C328.779 31.4587 328.165 30.8418 327.412 30.8418H311.45C310.7 30.8418 310.083 31.4561 310.083 32.2092V48.1706C310.083 48.9212 310.697 49.538 311.45 49.538H320.989C322.747 49.8619 327.689 50.7769 330.09 51.3115L323.466 43.4182V43.4156Z" fill="#23275D"/>
<path d="M323.191 60.9519L330.066 52.7578C327.606 53.4955 322.525 54.8372 322.525 54.8372C316.21 56.238 312.922 58.6026 311.383 61.1883C308.648 65.0515 309.291 70.4285 312.979 73.5231C316.667 76.6203 322.075 76.317 325.404 72.9525C327.683 70.9862 329.442 67.3364 329.724 60.8773C329.724 60.8773 330.182 55.3949 330.483 52.9172L323.193 60.9544L323.191 60.9519Z" fill="#FFA216"/>
</g>
<defs>
<filter id="filter0_d_1365_5379" x="0" y="0" width="658" height="748" filterUnits="userSpaceOnUse" color-interpolation-filters="sRGB">
<feFlood flood-opacity="0" result="BackgroundImageFix"/>
<feColorMatrix in="SourceAlpha" type="matrix" values="0 0 0 0 0 0 0 0 0 0 0 0 0 0 0 0 0 0 127 0" result="hardAlpha"/>
<feMorphology radius="12" operator="erode" in="SourceAlpha" result="effect1_dropShadow_1365_5379"/>
<feOffset dy="32"/>
<feGaussianBlur stdDeviation="32"/>
<feColorMatrix type="matrix" values="0 0 0 0 0.333333 0 0 0 0 0.411765 0 0 0 0 0.529412 0 0 0 0.08 0"/>
<feBlend mode="normal" in2="BackgroundImageFix" result="effect1_dropShadow_1365_5379"/>
<feBlend mode="normal" in="SourceGraphic" in2="effect1_dropShadow_1365_5379" result="shape"/>
</filter>
<clipPath id="clip0_1365_5379">
<rect width="554" height="644" fill="white" transform="translate(52 20)"/>
</clipPath>
</defs>
</svg>
